<svg id="Layer_1" data-name="Layer 1" xmlns="http://www.w3.org/2000/svg" viewBox="0 0 574.29 656.32"><defs><style>.cls-1{fill:#9e1047;}</style></defs><path class="cls-1" d="M40.8,572.51H533.49v61.74a22.07,22.07,0,0,1-22.07,22.07H62.87A22.07,22.07,0,0,1,40.8,634.25ZM574.29,20.25V512.11A20.31,20.31,0,0,1,554,532.36H20.25A20.31,20.31,0,0,1,0,512.11V20.25A20.31,20.31,0,0,1,20.25,0H554A20.31,20.31,0,0,1,574.29,20.25ZM127.52,429.85a25.2,25.2,0,0,0-50.4,0h0a25.2,25.2,0,0,0,50.4,0Zm364.3-9.17A10.7,10.7,0,0,0,481.15,410H297.81a10.71,10.71,0,0,0-10.67,10.67V439a10.71,10.71,0,0,0,10.67,10.67H481.15A10.7,10.7,0,0,0,491.82,439Zm0-299.45a39.81,39.81,0,0,0-39.69-39.69h-330a39.81,39.81,0,0,0-39.69,39.69V287.29A39.81,39.81,0,0,0,122.16,327h330a39.81,39.81,0,0,0,39.69-39.69Z"/></svg>